<svg width="1011" height="302" viewBox="0 0 1011 302" fill="none" xmlns="http://www.w3.org/2000/svg">
<path fill-rule="evenodd" clip-rule="evenodd" d="M170.328 18.3536L170.546 18.0001L174.966 10.819L180.161 2.37897C182.114 -0.793 186.725 -0.79299 188.677 2.37898L193.873 10.819L198.293 18L198.511 18.3536L358.006 277.462L358.467 278.21L363.831 286.923L368.089 293.841C370.139 297.172 367.743 301.462 363.831 301.462H355.708H345.476H344.597H272.955C272.464 301.623 271.933 301.712 271.371 301.712H263.265H253.017H252.132H118.868H117.983H107.735H99.6286C99.0666 301.712 98.5359 301.623 98.0452 301.462H24.2412H23.3625H13.1306H5.00789C1.096 301.462 -1.30069 297.172 0.749933 293.841L5.00789 286.923L10.3715 278.21L10.8321 277.462L170.328 18.3536ZM133.825 277.462L136.648 272.884L137 273.094L151.773 248.362L185.5 193.68L237.175 277.462H133.825ZM105.627 277.462L131.257 235.908L216.451 93.2817L184.419 41.2454L39.0146 277.462H105.627ZM198.833 169.578L230.639 116.331L329.824 277.462H265.373L199.599 170.821L199.385 170.474L198.833 169.578ZM431.125 127.75C426.292 124.25 420.25 122.5 413 122.5C411 122.5 409.125 122.625 407.375 122.875C405.625 123.042 401.083 123.75 393.75 125C386.5 126.167 380.708 126.958 376.375 127.375L376.625 128.625L378.125 128.5C378.542 128.417 378.958 128.375 379.375 128.375C381.375 128.375 383 129 384.25 130.25C385.5 131.417 386.125 133.083 386.125 135.25V202.875C386.042 205.125 385.208 207 383.625 208.5C382.042 210 380.208 210.75 378.125 210.75H376.5V212H403.875V210.75H402.25C400.167 210.75 398.333 210 396.75 208.5C395.167 207 394.333 205.125 394.25 202.875V128.75C401.667 127.5 405.833 126.833 406.75 126.75C407.75 126.583 408.917 126.5 410.25 126.5C415.917 126.5 420.583 128 424.25 131C429.083 134.833 431.5 141.083 431.5 149.75C431.5 155.167 430.375 159.833 428.125 163.75C425.042 169.083 420.083 171.75 413.25 171.75C411.5 171.75 409.5 171.25 407.25 170.25C403.917 168.833 401.792 166.333 400.875 162.75L399.75 163.125C400.333 167.875 402.292 171.25 405.625 173.25C408.958 175.167 412.667 176.125 416.75 176.125C424.5 176.125 430.542 173.417 434.875 168C438.875 162.917 440.875 156.792 440.875 149.625C440.875 139.708 437.625 132.417 431.125 127.75ZM528.89 125.75H530.64V124.5H502.89V125.75H504.39C506.223 125.75 507.64 126.583 508.64 128.25C509.223 129.167 509.515 130.042 509.515 130.875C509.515 131.708 509.306 132.542 508.89 133.375L488.89 168.5L470.14 133.5C469.723 132.667 469.515 131.833 469.515 131C469.515 130.083 469.765 129.167 470.265 128.25C471.265 126.583 472.681 125.75 474.515 125.75H476.14V124.5H445.39V125.75H447.14C449.64 125.75 452.015 126.458 454.265 127.875C456.598 129.292 458.39 131 459.64 133L483.515 172.875V203C483.431 205.167 482.598 207 481.015 208.5C479.515 210 477.681 210.75 475.515 210.75H473.89V212H501.14V210.75H499.64C497.39 210.75 495.473 210 493.89 208.5C492.39 206.917 491.64 205.042 491.64 202.875V173L516.265 133C517.765 130.917 519.598 129.208 521.765 127.875C524.015 126.458 526.39 125.75 528.89 125.75ZM554.406 128.375H562.406C565.406 128.375 567.906 128.417 569.906 128.5C574.573 128.75 578.281 130.583 581.031 134C583.781 137.417 585.24 141.917 585.406 147.5V150.375C585.406 151.792 585.156 153.333 584.656 155C581.99 163.417 575.49 167.75 565.156 168C563.573 168.083 562.24 168.125 561.156 168.125C560.073 168.125 559.198 168.083 558.531 168V169.25C561.198 169.25 563.865 170.667 566.531 173.5C567.448 174.5 568.323 175.542 569.156 176.625C569.99 177.625 572.948 181.792 578.031 189.125C583.115 196.458 586.198 200.792 587.281 202.125C588.448 203.375 589.781 204.708 591.281 206.125C592.865 207.458 595.198 208.792 598.281 210.125C601.365 211.375 604.698 212 608.281 212H608.842H615.156H633.967V210.75H632.842C631.092 210.75 629.758 210.208 628.842 209.125C628.008 207.958 627.592 206.917 627.592 206C627.592 205 627.758 204 628.092 203L636.467 181.625H670.217L678.217 202.875C678.55 203.875 678.717 204.875 678.717 205.875C678.717 206.875 678.258 207.958 677.342 209.125C676.508 210.208 675.217 210.75 673.467 210.75H672.342V212H700.467V210.75H699.467C697.3 210.75 695.217 210.083 693.217 208.75C691.217 207.417 689.633 205.458 688.467 202.875L654.967 122.75H653.842C653.842 124.583 652.3 128.875 649.217 135.625L620.967 202.875C619.717 205.458 618.092 207.417 616.092 208.75C614.792 209.617 613.474 210.202 612.139 210.505C610.496 210.232 608.919 209.73 607.406 209C606.323 208.5 605.24 207.833 604.156 207C603.073 206.167 602.073 205.333 601.156 204.5C600.24 203.583 598.698 201.958 596.531 199.625C594.365 197.208 589.698 190.875 582.531 180.625C581.198 178.792 579.656 177.042 577.906 175.375C576.24 173.625 574.781 172.458 573.531 171.875C579.448 171.875 584.448 169.458 588.531 164.625C592.698 159.708 594.781 153.917 594.781 147.25C594.781 140.5 592.615 135.042 588.281 130.875C583.948 126.625 577.99 124.5 570.406 124.5H536.656V125.75H538.281C540.448 125.75 542.281 126.542 543.781 128.125C545.365 129.625 546.198 131.458 546.281 133.625V203C546.198 205.167 545.365 207 543.781 208.5C542.281 210 540.448 210.75 538.281 210.75H536.656V212H564.031L563.906 210.75H562.406C560.156 210.75 558.24 210 556.656 208.5C555.156 206.917 554.406 205.042 554.406 202.875V128.375ZM668.717 177.875H637.967L653.717 137.75L668.717 177.875ZM813.456 210.75H811.456C809.206 210.75 807.206 210.042 805.456 208.625C803.706 207.208 802.664 205.292 802.331 202.875L792.706 122.75H791.581L757.456 198.125L722.581 122.75H721.331L711.956 202.875C711.623 205.292 710.581 207.208 708.831 208.625C707.164 210.042 705.164 210.75 702.831 210.75H700.831V212H725.081V210.875H723.206C721.789 210.875 720.581 210.333 719.581 209.25C718.581 208.083 718.164 206.833 718.331 205.5L723.706 144.375L755.706 213.75H756.956C757.456 210.333 758.873 206.083 761.206 201L787.456 142.625L793.081 205.5C793.248 206.917 792.831 208.167 791.831 209.25C790.831 210.333 789.623 210.875 788.206 210.875H786.331V212H813.456V210.75ZM829.914 208.5C828.414 210 826.581 210.75 824.414 210.75H822.789V212H850.164V210.75H848.539C846.372 210.75 844.497 210 842.914 208.5C841.331 206.917 840.539 205.042 840.539 202.875V133.5C840.622 131.333 841.414 129.5 842.914 128C844.497 126.5 846.372 125.75 848.539 125.75H850.164V124.5H822.789V125.75H824.414C826.581 125.75 828.414 126.5 829.914 128C831.497 129.5 832.331 131.333 832.414 133.5V202.875C832.331 205.042 831.497 206.917 829.914 208.5ZM939.775 136.625C931.525 128.542 920.734 124.5 907.4 124.5H865.025L865.15 125.75H866.65C868.734 125.75 870.567 126.458 872.15 127.875C873.817 129.208 874.65 130.875 874.65 132.875V202.875C874.567 205.042 873.734 206.917 872.15 208.5C870.65 210 868.817 210.75 866.65 210.75H865.025V212H907.4C920.734 212 931.525 208 939.775 200C948.109 191.917 952.275 181.333 952.275 168.25C952.275 155.167 948.109 144.625 939.775 136.625ZM882.775 208.25V128.25H907.4C917.984 128.25 926.525 131.917 933.025 139.25C939.609 146.583 942.9 156.25 942.9 168.25C942.9 176.167 941.4 183.167 938.4 189.25C935.484 195.25 931.317 199.917 925.9 203.25C920.567 206.583 914.4 208.25 907.4 208.25H882.775ZM965.605 200.125C965.605 203.458 965.73 205.708 965.98 206.875C968.23 209.208 971.397 210.917 975.48 212C979.647 213.167 983.564 213.75 987.23 213.75C994.314 213.75 999.98 211.625 1004.23 207.375C1008.48 203.042 1010.61 197.542 1010.61 190.875C1010.61 184.208 1008.52 178.958 1004.36 175.125L979.73 152.375C976.397 149.292 974.73 145.625 974.73 141.375C974.73 137.125 976.147 133.583 978.98 130.75C981.897 127.917 985.48 126.5 989.73 126.5C993.98 126.5 997.439 127.667 1000.11 130C1002.86 132.333 1004.23 135.458 1004.23 139.375H1005.36V124H1000.48C996.48 123.167 992.897 122.75 989.73 122.75C982.98 122.75 977.605 124.875 973.605 129.125C969.689 133.292 967.73 138.333 967.73 144.25C967.73 150.167 969.98 155.208 974.48 159.375L998.48 181.625C1001.73 184.625 1003.36 188.542 1003.36 193.375C1003.36 198.125 1001.65 202.083 998.23 205.25C994.897 208.417 990.605 210 985.355 210C980.272 210 976.189 208.333 973.105 205C970.022 201.583 968.48 197.333 968.48 192.25C968.48 191.333 968.522 190.417 968.605 189.5H967.48C966.23 193.25 965.605 196.792 965.605 200.125Z" fill="url(#paint0_linear_2_102)"/>
<defs>
<linearGradient id="paint0_linear_2_102" x1="799.5" y1="90" x2="799.5" y2="213" gradientUnits="userSpaceOnUse">
<stop stop-color="#D6B06E"/>
<stop offset="1" stop-color="#AE885B"/>
</linearGradient>
</defs>
</svg>
